<svg xmlns="http://www.w3.org/2000/svg" viewBox="0 0 68 68" fill="none">
  <!-- Background circle -->
  <circle cx="34" cy="34" r="34" fill="#E7E9E8" />

  <!-- Left Ear -->
  <circle cx="18" cy="18" r="9" fill="#B56A2B" />
  <circle cx="18" cy="20" r="5" fill="#CD853F" />

  <!-- Right Ear -->
  <circle cx="50" cy="18" r="9" fill="#B56A2B" />
  <circle cx="50" cy="20" r="5" fill="#CD853F" />

  <!-- Head - main brown circle -->
  <path
        d="M33.6406 14.75C47.1716 14.75 58.1406 24.6557 58.1406 36.875C58.1406 49.0943 47.1716 59 33.6406 59C20.1096 59 9.14062 49.0943 9.14062 36.875C9.14062 24.6557 20.1096 14.75 33.6406 14.75Z"
        fill="#B56A2B"
    />

  <!-- Muzzle/snout area -->
  <path
        d="M34 34C40.9229 34 42.9999 40.7853 43 44.5322C43 51.6425 38.9076 53 34.0645 53C29.2215 52.9999 25 50.9637 25 44.5322C25.0001 40.7853 27.0771 34 34 34Z"
        fill="#CD853F"
    />

  <!-- Mouth details - left side -->
  <path
        d="M30.4018 45.6937C30.3419 45.6937 30.042 45.5138 29.3225 44.7942C28.6029 44.0746 29.1426 43.7748 29.5024 43.7148C29.5623 43.9547 30.042 44.5783 31.4812 45.154C33.2801 45.8736 33.8198 44.0746 33.8198 44.7942C33.8198 45.5138 33.8198 45.6937 33.1002 46.0535C32.5246 46.3413 31.6611 46.1734 31.3013 46.0535L30.4018 45.6937Z"
        fill="#241E16"
        stroke="#281E11"
    />

  <!-- Mouth details - right side -->
  <path
        d="M37.063 45.6937C37.123 45.6937 37.4228 45.5138 38.1424 44.7942C38.862 44.0746 38.3223 43.7748 37.9625 43.7148C37.9025 43.9547 37.4228 44.5783 35.9836 45.154C34.1847 45.8736 33.645 44.0746 33.645 44.7942C33.645 45.5138 33.645 45.6937 34.3646 46.0535C34.9403 46.3413 35.8038 46.1734 36.1635 46.0535L37.063 45.6937Z"
        fill="#241E16"
        stroke="#281E11"
    />

  <!-- Nose vertical line -->
  <rect
        x="33.6399"
        y="38.676"
        width="0.359788"
        height="6.83598"
        fill="#241E16"
        stroke="#281E11"
        stroke-width="0.359788"
    />

  <!-- Nose oval -->
  <path
        d="M33.8203 36.8379C34.8324 36.8379 35.7253 37.0999 36.3496 37.4971C36.98 37.8982 37.2773 38.3912 37.2773 38.8564C37.2773 39.3217 36.9799 39.8147 36.3496 40.2158C35.7253 40.613 34.8324 40.8749 33.8203 40.875C32.808 40.875 31.9144 40.6131 31.29 40.2158C30.6597 39.8147 30.3623 39.3217 30.3623 38.8564C30.3623 38.3912 30.6597 37.8982 31.29 37.4971C31.9144 37.0998 32.808 36.8379 33.8203 36.8379Z"
        fill="#241E16"
        stroke="#281E11"
    />

  <!-- Left Eye -->
  <ellipse cx="26" cy="30" rx="3.5" ry="4" fill="#FFFFFF" />
  <ellipse cx="26" cy="30" rx="2.5" ry="3" fill="#241E16" />

  <!-- Right Eye -->
  <ellipse cx="41" cy="30" rx="3.5" ry="4" fill="#FFFFFF" />
  <ellipse cx="41" cy="30" rx="2.5" ry="3" fill="#241E16" />

  <!-- QuarterZip accessory -->
  <g transform="translate(6, 45)">
    <path
            d="M0 7.49994C7.07763 6.23694 16.575 7.33636 24.9775 11.1474C40.5565 7.19207 50.0004 6.72524 55.2852 8.43842C49.089 16.7769 39.1653 22.1806 27.9785 22.1806C16.3776 22.1806 6.13577 16.369 0 7.49994Z"
            fill="#284A38"
        />
    <path
            d="M18.5 9.5L19.5 7.5H35.5L36 9L30.5 12L27.5 17L24.5 12L18.5 9.5Z"
            fill="black"
            stroke="black"
            stroke-linejoin="round"
        />
    <path
            d="M16.1017 6.40544C25.2539 8.23587 27.5 16.4239 27.5 21C27.0423 13.6776 23.8811 13.2703 17.4746 11.8975C10.3885 11.585 8.32238 10.5239 4.20391 8.23587C0.0854447 5.94783 2.83109 -0.916279 3.7463 0.914151C4.66152 2.74458 5.57673 1.82937 16.1017 6.40544Z"
            fill="#284A38"
            stroke="#203F2F"
            stroke-linejoin="round"
        />
    <path
            d="M38.5243 6.71331C29.3721 8.54374 27.5 15.9232 27.5 20.4993C27.9578 13.1768 30.7449 13.5782 37.1514 12.2053C44.2375 11.8929 46.3036 10.8318 50.4221 8.54374C54.5406 6.2557 52.4152 -0.83043 51.5 1C50.5848 2.83043 49.0493 2.13723 38.5243 6.71331Z"
            fill="#284A38"
            stroke="#203F2F"
            stroke-linejoin="round"
        />
    <path
            d="M16.4757 5.79802C27.0848 8.69454 28 15.5 27.5424 21.9652C27.5 14.5 24.2552 12.6629 17.8487 11.29C10.7626 10.9776 8.6964 9.91649 4.57794 7.62845C0.459468 5.34041 3.20511 -1.5237 4.12033 0.306729C5.03554 2.13716 5.95076 1.22194 16.4757 5.79802Z"
            fill="#284A38"
        />
    <path
            d="M38.8983 6.10466C27.0844 8.69373 27 17 27.4581 22.1209C27.5 15 29.5 13 37.5 11.5C44.5861 11.1876 46.6776 10.2231 50.7961 7.93509C54.9146 5.64705 52.1689 -1.21706 51.2537 0.61337C50.3385 2.4438 49.4233 1.52858 38.8983 6.10466Z"
            fill="#284A38"
        />
    <path
            d="M27.4994 21.5C27.1661 18.5 27.5 13.5 33.5 9.5"
            stroke="#959493"
            stroke-linejoin="round"
        />
    <path
            d="M27.4997 21.5C27.833 18.5 27.0026 13 21.0026 9"
            stroke="#959493"
            stroke-linejoin="round"
        />
    <path
            d="M27.249 18.6995C27.649 14.7557 27.9157 18.5899 27.999 21H26.999C27.249 18.6995 26.749 23.6292 27.249 18.6995Z"
            fill="#E2E3E3"
            stroke="#E2E3E3"
            stroke-linejoin="round"
        />
    <path
            d="M26.999 18.5C27.1657 18.6667 27.599 18.9 27.999 18.5"
            stroke="#6D706F"
            stroke-width="0.25"
            stroke-linejoin="round"
        />
  </g>
</svg>
